<!--
    First-aid pictogram — cross-inside-a-suitcase icon matching the
    fly-to menu icon family (poi-toilet, poi-info, poi-tent). Loaded
    via <img>, fill baked in (#1B192A = tokens.css var(text)). 24×24 grid.
-->
<svg width="24" height="24" viewBox="0 0 24 24" fill="none" xmlns="http://www.w3.org/2000/svg">
<path d="M10.569 2.01383C9.93211 2.07838 9.19367 2.25358 8.86137 2.41956C8.05832 2.83451 7.55987 3.71051 7.50449 4.81703C7.43987 5.98811 7.54141 5.88668 6.35067 5.95123C5.723 5.97889 5.12302 6.06188 4.85533 6.16331C4.2092 6.38462 3.49845 7.10386 3.22153 7.81388L3 8.36714L3.01846 12.95C3.02769 17.6712 3.08307 18.5195 3.41537 19.2664C3.6646 19.8289 4.35688 20.5297 4.91995 20.7787L5.39993 21H18.6919L19.2088 20.7603C20.1041 20.3361 20.6764 19.5615 20.861 18.5195C20.981 17.8648 21.0456 12.6642 20.9626 10.2114C20.898 8.29338 20.8887 8.15506 20.658 7.65712C20.1318 6.51371 19.2642 6.02499 17.6119 5.95123C17.0488 5.92356 16.5781 5.84979 16.5319 5.79447C16.4858 5.73914 16.4304 5.33341 16.4119 4.90002C16.3381 3.49842 15.7104 2.60398 14.5104 2.23514C14.0674 2.09682 13.5689 2.04149 12.4336 2.01383C11.6121 1.99539 10.7721 1.99539 10.569 2.01383ZM13.7259 4.13468C14.2797 4.21767 14.6858 4.97379 14.5381 5.63771L14.4735 5.92356H9.4152L9.35982 5.69304C9.33213 5.56394 9.33213 5.27809 9.35982 5.04756C9.46136 4.41131 9.82135 4.16234 10.8459 4.05169C11.1967 4.0148 13.3289 4.07013 13.7259 4.13468ZM18.5165 8.20117C18.7196 8.3487 18.8396 8.53312 18.9042 8.80976C19.0426 9.36302 19.1349 14.5545 19.0426 16.5923C18.9688 18.0769 18.9411 18.3075 18.7749 18.5288C18.3688 19.0728 18.5903 19.0544 12.0459 19.0636C6.17529 19.0636 6.03684 19.0636 5.723 18.8792C5.09533 18.5103 5.06763 18.372 4.97533 15.6241C4.85533 12.2308 4.91072 9.0034 5.10456 8.63456C5.2984 8.24727 5.45532 8.14584 5.91684 8.05363C6.13837 8.00752 8.99983 7.97986 12.2767 7.97986L18.2303 7.9983L18.5165 8.20117Z" fill="#1B192A"/>
<path d="M10.809 10.0362C10.6429 10.2482 10.6152 10.4142 10.6152 11.1058C10.6152 12.2769 10.6059 12.2861 9.54444 12.2861C8.74139 12.2861 8.64908 12.3045 8.44601 12.5166C8.23371 12.7195 8.21525 12.8117 8.21525 13.6047C8.21525 14.8219 8.27986 14.8864 9.36906 14.8772C10.5598 14.868 10.6152 14.9141 10.6152 16.0206C10.6152 17.2194 10.6613 17.2655 11.9075 17.2655C12.7751 17.2655 12.8582 17.247 13.0613 17.0349C13.2736 16.8321 13.292 16.7399 13.292 15.9284C13.292 15.0709 13.3013 15.0432 13.532 14.9602C13.6612 14.9049 14.132 14.868 14.5843 14.868C15.7289 14.868 15.8304 14.7389 15.7658 13.3834C15.7196 12.3691 15.6273 12.2861 14.4089 12.2861C13.9197 12.2861 13.4582 12.24 13.3843 12.1939C13.2828 12.1293 13.2366 11.8711 13.2182 11.115C13.172 9.79641 13.172 9.79641 11.9444 9.79641C11.0306 9.79641 10.9936 9.80563 10.809 10.0362Z" fill="#1B192A"/>
</svg>
