<svg width="24" height="24" viewBox="0 0 24 24" fill="none" xmlns="http://www.w3.org/2000/svg">
<path d="M9.96513 14.5219C10.3963 14.3716 10.8344 14.3618 11.2376 14.4294C11.929 14.5453 12.5574 14.9202 12.9182 15.5885C13.4428 15.5872 13.9922 15.584 14.532 15.5918C15.2285 15.6018 15.6441 15.6444 16.2177 15.6336C16.3792 15.6305 16.557 15.6371 16.6559 15.6393C16.7753 15.6419 16.8488 15.6411 16.9071 15.6352C17.0918 15.6166 17.2584 15.6244 17.3624 15.6303C17.4935 15.6378 17.5265 15.6408 17.5776 15.6409C18.1638 15.6431 18.7448 15.6453 19.3243 15.6409C19.4748 15.6398 19.5691 15.6252 19.831 15.609C20.4359 15.5715 20.9579 16.01 20.9972 16.5879C21.0362 17.1657 20.5781 17.6645 19.9734 17.702C19.8562 17.7093 19.5711 17.7355 19.3423 17.7373C18.7487 17.7418 18.156 17.7403 17.5691 17.7381C17.4941 17.7378 17.425 17.7346 17.3701 17.7315C17.3428 17.73 17.3162 17.7289 17.2938 17.7274C17.2702 17.7259 17.2508 17.7244 17.2321 17.7233C17.1628 17.7194 17.1403 17.7208 17.1378 17.7209C16.9345 17.7414 16.7465 17.7396 16.6053 17.7364C16.4433 17.7329 16.3603 17.728 16.2614 17.7299C15.6867 17.7407 14.9518 17.6946 14.4985 17.6881C14.0089 17.6811 13.5276 17.6834 13.0263 17.6848C12.8321 18.149 12.475 18.4777 12.1156 18.6793C11.1599 19.2156 9.63413 19.1362 8.82643 18.0035C8.75963 17.9098 8.70883 17.8144 8.66866 17.7291C8.18525 17.7213 7.66563 17.6932 7.31473 17.6881C6.70909 17.6794 5.09076 17.6881 4.45683 17.6881C3.85067 17.6881 3.35928 17.2187 3.35928 16.6395C3.3595 16.0606 3.8508 15.591 4.45683 15.591C5.05571 15.591 6.72147 15.5828 7.34817 15.5918C7.89604 15.5997 8.27016 15.6263 8.68409 15.6328C8.73339 15.5341 8.80323 15.411 8.88902 15.3018L8.99706 15.1724C9.25865 14.8807 9.58279 14.6552 9.96513 14.5219ZM14.0303 10.1477C14.596 9.38852 15.4243 9.14315 16.2186 9.20231C17.0878 9.26712 17.786 9.72971 18.1813 10.4483C18.1981 10.4788 18.2124 10.5123 18.2293 10.545C18.5896 10.5466 18.9514 10.5504 19.314 10.5614C19.9197 10.5798 20.3955 11.064 20.3764 11.6427C20.3572 12.2214 19.8503 12.6759 19.2445 12.6577C18.8973 12.6472 18.5489 12.6427 18.1993 12.6413C18.1063 12.8278 17.99 12.9866 17.8717 13.1172C17.41 13.627 16.8145 13.833 16.2606 13.8775C15.838 13.9113 15.3775 13.8367 14.9675 13.6604C14.5567 13.4837 14.1049 13.1624 13.8537 12.638C13.8387 12.6067 13.8251 12.5722 13.81 12.5381C13.1087 12.5305 12.4285 12.5219 11.7401 12.5315C11.1698 12.5395 10.6007 12.5416 10.038 12.543C9.58419 12.5441 9.10671 12.5323 8.68323 12.5274C8.55698 12.5492 8.42954 12.5491 8.30595 12.5291C8.15388 12.5296 7.99993 12.5332 7.83607 12.5364C7.67228 12.5397 7.49746 12.5429 7.32159 12.5438C6.63018 12.5474 5.93267 12.5516 5.23626 12.552C5.01027 12.5521 4.78873 12.5394 4.60345 12.5291C4.40772 12.5182 4.24798 12.5099 4.09327 12.5094C3.48724 12.5071 2.99779 12.0358 3.00001 11.4567C3.00229 10.8777 3.49572 10.4101 4.10184 10.4123C4.32701 10.4131 4.54759 10.4258 4.73121 10.436C4.92538 10.4468 5.08319 10.4549 5.23454 10.4549C5.92422 10.4545 6.61437 10.4502 7.30959 10.4467C7.46545 10.4459 7.6227 10.4426 7.79062 10.4393C7.95549 10.436 8.13073 10.4324 8.30767 10.4319C8.34673 10.4318 8.3854 10.4331 8.42343 10.4368C8.46991 10.4316 8.51118 10.4296 8.54518 10.4286C8.6027 10.4271 8.65173 10.4287 8.67037 10.4295C8.70028 10.4307 8.68766 10.4304 8.67895 10.4303C9.16083 10.4355 9.58469 10.447 10.0329 10.4458C10.5959 10.4444 11.1527 10.4429 11.7083 10.4352C12.4228 10.4252 13.1466 10.4334 13.8486 10.4409C13.8499 10.4381 13.8515 10.4355 13.8528 10.4327L13.918 10.3107C13.939 10.2758 13.9586 10.2471 13.9737 10.2255C13.9891 10.2035 14.0032 10.1844 14.0123 10.1722C14.0306 10.1479 14.0193 10.1625 14.0303 10.1477ZM13.5665 12.031C13.5808 12.0542 13.5953 12.0761 13.6102 12.0965C13.6078 12.0927 13.6063 12.0889 13.6042 12.0859C13.6029 12.084 13.602 12.082 13.6008 12.0801C13.5893 12.0638 13.577 12.048 13.5665 12.031ZM13.5262 11.9605C13.5339 11.9757 13.5429 11.9898 13.551 12.004C13.5363 11.9785 13.5232 11.9522 13.5107 11.9253C13.5162 11.937 13.5203 11.9492 13.5262 11.9605ZM8.63865 4.00229C9.38117 4.03134 10.0891 4.31878 10.6022 4.96813C10.7051 5.09832 10.781 5.22906 10.8397 5.35151C10.8959 5.35232 10.9535 5.35581 11.0129 5.35642C11.2202 5.35857 11.4545 5.36014 11.6903 5.37035C12.3553 5.39912 12.9814 5.36789 13.7457 5.36134C13.8707 5.36027 13.8146 5.36266 13.8769 5.36134C14.3763 5.35071 15.0317 5.31184 15.6372 5.33267C15.8082 5.33854 15.9819 5.33838 16.1817 5.3384C16.3744 5.33843 16.5914 5.33915 16.8128 5.34823C17.1082 5.36035 17.2592 5.34101 17.6831 5.34332C17.7862 5.34388 17.8838 5.35237 17.9241 5.35561C17.9558 5.35816 17.9707 5.35937 17.9764 5.3597C18.2886 5.35688 18.7486 5.33876 19.1382 5.34578C19.2359 5.34754 19.3269 5.35351 19.3989 5.35888C19.483 5.36515 19.5247 5.36906 19.5832 5.37281C19.6843 5.37926 19.7162 5.37628 19.723 5.37527C20.321 5.28094 20.8864 5.66736 20.9852 6.2387C21.0839 6.80992 20.6792 7.34919 20.0814 7.44373C19.8249 7.4842 19.594 7.47592 19.4366 7.46585C19.2349 7.45295 19.1964 7.44471 19.0971 7.44292C18.7334 7.43635 18.4392 7.45284 17.9978 7.45684C17.888 7.45784 17.7877 7.44917 17.7406 7.44537C17.7112 7.44302 17.6961 7.44216 17.6823 7.44128C17.6768 7.44093 17.6711 7.44046 17.6711 7.44046C17.487 7.43945 17.0233 7.45624 16.7185 7.44373C16.5505 7.43684 16.3782 7.43557 16.1817 7.43554C15.9923 7.43552 15.7764 7.43648 15.5583 7.42899C15.0352 7.41099 14.5571 7.44422 13.9257 7.45766C13.8849 7.45852 13.8472 7.45862 13.822 7.45848C13.7926 7.45832 13.7793 7.45836 13.7654 7.45848C13.1195 7.46402 12.333 7.49797 11.5909 7.46585C11.4007 7.45762 11.2081 7.45582 10.9898 7.45356C10.9765 7.45343 10.9629 7.45289 10.9495 7.45275C10.9432 7.455 10.937 7.45715 10.9306 7.4593C10.9243 7.47435 10.9187 7.48991 10.9118 7.50517C10.7169 7.93471 10.418 8.29916 10.0097 8.5562C9.60598 8.81029 9.15703 8.921 8.72182 8.94204C7.9307 8.98019 7.11375 8.73403 6.5233 8.00898C6.39416 7.85034 6.29903 7.6847 6.22662 7.52156H4.09755C3.49145 7.52156 3.00009 7.05203 3.00001 6.47299C3.00001 5.89388 3.4914 5.42442 4.09755 5.42442H6.2249C6.63615 4.49811 7.562 3.96026 8.63865 4.00229Z" fill="#1B192A"/>
</svg>
